<?xml version="1.0" encoding="UTF-8"?>
<svg version="1.1" xmlns="http://www.w3.org/2000/svg" width="621" height="737">
<path d="M0 0 C0.67106781 0.14752716 1.34213562 0.29505432 2.03353882 0.447052 C3.94160856 0.87121462 5.8459053 1.31224185 7.75 1.75390625 C8.83796875 2.00599854 9.9259375 2.25809082 11.046875 2.51782227 C15.63378518 3.94630198 18.31895547 5.4159332 21 9.4375 C21 10.4275 21 11.4175 21 12.4375 C20.14277344 12.85 19.28554687 13.2625 18.40234375 13.6875 C8.66123677 18.60747286 1.55943233 23.75920302 -2 34.4375 C-2 35.4275 -2 36.4175 -2 37.4375 C-1.52433594 36.71046875 -1.52433594 36.71046875 -1.0390625 35.96875 C12.34230526 16.74689576 36.06232398 9.67648117 57.97290039 5.69238281 C70.99513922 3.45666212 83.88277949 3.19738617 97.0625 3.1875 C97.99286072 3.18649292 98.92322144 3.18548584 99.8817749 3.18444824 C135.20590644 3.2102561 168.58077705 6.62615298 195 32.4375 C196.77481488 34.38381384 198.39278253 36.34811728 200 38.4375 C199.52088889 33.40683334 197.88483955 30.53211097 195 26.4375 C195 25.7775 195 25.1175 195 24.4375 C194.43023437 24.17839844 193.86046875 23.91929688 193.2734375 23.65234375 C190.79663736 22.32883028 188.79967349 20.77407574 186.625 19 C183.19922033 16.28202605 180.00053588 14.18132333 176 12.4375 C176.125 10.1875 176.125 10.1875 177 7.4375 C181.81816299 3.45748663 186.524837 2.32410717 192.578125 1.1484375 C193.50357117 0.95907623 194.42901733 0.76971497 195.38250732 0.57461548 C197.34128808 0.17684161 199.30139808 -0.21443507 201.26269531 -0.59960938 C204.20203989 -1.17806163 207.1361725 -1.77857942 210.0703125 -2.3828125 C235.0738735 -7.4521413 258.2288363 -8.51214824 283.5625 -5.6875 C284.73289825 -5.55707306 284.73289825 -5.55707306 285.92694092 -5.42401123 C290.95877396 -4.85506643 295.97904312 -4.22026728 301 -3.5625 C302.02722168 -3.45260742 303.05444336 -3.34271484 304.11279297 -3.22949219 C316.03020694 -1.64619386 325.61080861 6.35322507 335.1875 13.125 C336.18289795 13.82343018 337.1782959 14.52186035 338.20385742 15.24145508 C341.13895489 17.30250906 344.06963253 19.36972933 347 21.4375 C348.54393418 22.52131307 350.08817507 23.60468944 351.6328125 24.6875 C355.7660822 27.58895656 359.88624896 30.50844771 364 33.4375 C364.74088867 33.9644043 365.48177734 34.49130859 366.24511719 35.03417969 C376.37340989 42.25032058 386.307613 49.64563918 396 57.4375 C397.07941189 58.29689408 398.15883874 59.15626937 399.23828125 60.015625 C406.74091333 66.04886999 406.74091333 66.04886999 409 69.4375 C409.70897911 76.38280722 407.82071551 81.5324161 405.23046875 87.91796875 C404.83814056 88.91673035 404.44581238 89.91549194 404.04159546 90.94451904 C402.76917623 94.17635309 401.47841146 97.40051372 400.1875 100.625 C399.31029715 102.84455289 398.43456948 105.06468935 397.56030273 107.28540039 C395.83428525 111.66805363 394.10299507 116.04856323 392.36816406 120.42773438 C389.35649279 128.04826169 386.44494153 135.70484426 383.5625 143.375 C382.04923744 147.3987631 380.52937626 151.41983575 379 155.4375 C378.65936523 156.34878662 378.31873047 157.26007324 377.96777344 158.19897461 C376.14219936 162.96178272 374.24378209 167.03551265 371.125 171.125 C370.42632813 172.04152344 369.72765625 172.95804688 369.0078125 173.90234375 C368.34523438 174.73894531 367.68265625 175.57554687 367 176.4375 C366.22269531 177.42943359 366.22269531 177.42943359 365.4296875 178.44140625 C348.75701217 198.80393595 322.80509483 212.00680597 300.00170898 224.01660156 C299.02532471 224.53706055 298.04894043 225.05751953 297.04296875 225.59375 C296.15891357 226.06103516 295.2748584 226.52832031 294.36401367 227.00976562 C288.94634263 230.28174128 286.25923524 234.39688276 284.125 240.25 C276.67464521 260.23875675 253.07027806 270.42918449 234.98828125 278.8046875 C221.30907922 284.89875944 206.04184941 290.30936129 191 291.4375 C189 290.4375 189 290.4375 188.11328125 288.36328125 C185.28362256 279.12893167 185.28362256 279.12893167 187 274.4375 C189.0625 272.5625 189.0625 272.5625 191 271.4375 C190.38942612 263.48873264 187.04372944 256.46984353 184.0625 249.15429688 C183.65773438 248.12240234 183.25296875 247.09050781 182.8359375 246.02734375 C182.46001465 245.09784912 182.0840918 244.16835449 181.69677734 243.21069336 C180.65882111 239.07959844 181.23391304 235.83531405 183.26953125 232.12109375 C183.77871094 231.37988281 184.28789062 230.63867188 184.8125 229.875 C194.55255715 214.21130233 193.70287761 197.7175955 190 180.4375 C190.01047363 181.01081055 190.02094727 181.58412109 190.03173828 182.17480469 C190.61344317 218.88848297 190.61344317 218.88848297 179 232.4375 C178.01 232.4375 177.02 232.4375 176 232.4375 C174.84973914 230.02285319 173.70467795 227.60596682 172.5625 225.1875 C172.07426758 224.16462891 172.07426758 224.16462891 171.57617188 223.12109375 C171.26357422 222.45722656 170.95097656 221.79335937 170.62890625 221.109375 C170.34088135 220.5019043 170.05285645 219.89443359 169.75610352 219.26855469 C167.95943265 214.91755969 167.79831416 210.70993668 167.68359375 206.046875 C167.6524221 204.98995453 167.6524221 204.98995453 167.62062073 203.91168213 C167.55546163 201.67038319 167.49639752 199.42897136 167.4375 197.1875 C167.39428274 195.66405103 167.35066743 194.14061329 167.30664062 192.6171875 C167.19981509 188.89074409 167.09845361 185.16417506 167 181.4375 C166.66027199 184.24935594 166.32809788 187.06178236 166 189.875 C165.90460938 190.65810547 165.80921875 191.44121094 165.7109375 192.24804688 C165.43503563 194.64248093 165.20601911 197.0360898 165 199.4375 C164.89945312 200.44901123 164.89945312 200.44901123 164.796875 201.48095703 C164.0585092 215.34838965 170.65675186 229.45722692 175.6875 242.0625 C176.58192239 244.31682183 177.47329845 246.57220528 178.35786438 248.83041382 C178.90161315 250.21742237 179.45102542 251.60222992 180.00724792 252.98428345 C181.50359071 256.78807584 182.4799999 260.38298379 183 264.4375 C182.40687012 264.66300537 181.81374023 264.88851074 181.20263672 265.12084961 C169.92586463 269.45194197 159.31954996 273.84954058 149.38671875 280.78515625 C147 282.4375 147 282.4375 146 282.4375 C145.93516722 273.10357442 145.94335875 263.77145109 146 254.4375 C146.0004834 253.58704102 146.0009668 252.73658203 146.00146484 251.86035156 C146.05501051 240.55456715 148.1648727 229.71330117 150.35119629 218.65814209 C153.17477227 204.35556968 155.07605223 190.0421511 155 175.4375 C154.83918945 176.52466309 154.67837891 177.61182617 154.51269531 178.73193359 C153.90038997 182.85938697 153.27946733 186.98550954 152.65625 191.11132812 C152.39031445 192.87954384 152.12655717 194.64808887 151.86523438 196.41699219 C147.18396607 228.06956785 147.18396607 228.06956785 144 234.4375 C143.44054687 234.293125 142.88109375 234.14875 142.3046875 234 C134.88823598 232.28300801 127.59646446 231.98319128 120 232.4375 C119.67 232.7675 119.34 233.0975 119 233.4375 C119.62567871 233.66937012 120.25135742 233.90124023 120.89599609 234.14013672 C123.72446847 235.19194367 126.54973539 236.25210848 129.375 237.3125 C130.35984375 237.67730469 131.3446875 238.04210937 132.359375 238.41796875 C133.30039062 238.77246094 134.24140625 239.12695312 135.2109375 239.4921875 C136.51490479 239.97921143 136.51490479 239.97921143 137.84521484 240.47607422 C140 241.4375 140 241.4375 142 243.4375 C142.24291992 245.70898438 142.24291992 245.70898438 142.23046875 248.53125 C142.22853516 249.5625 142.22660156 250.59375 142.22460938 251.65625 C142.21236328 252.7390625 142.20011719 253.821875 142.1875 254.9375 C142.18685547 255.989375 142.18621094 257.04125 142.18554688 258.125 C142.14938621 264.61784816 141.7822988 270.991862 141 277.4375 C140.34475342 277.28394043 139.68950684 277.13038086 139.0144043 276.97216797 C132.60242402 275.49884546 126.56091255 275.21298208 120 275.4375 C120.72445313 275.76363281 121.44890625 276.08976562 122.1953125 276.42578125 C124.18908751 277.32696755 126.17987654 278.2347828 128.16796875 279.1484375 C130.24212825 280.09253769 132.33501701 280.99577984 134.4375 281.875 C137.77545238 283.91033682 139.63724615 285.80226972 141 289.4375 C141.49344894 294.23837053 141.37568587 298.99293039 141.25 303.8125 C141.23195313 305.12089844 141.21390625 306.42929687 141.1953125 307.77734375 C141.14829348 310.99814689 141.08258181 314.21744474 141 317.4375 C139.92878906 317.57027344 138.85757812 317.70304687 137.75390625 317.83984375 C136.35674231 318.0180056 134.95960841 318.19640319 133.5625 318.375 C132.85544922 318.46201172 132.14839844 318.54902344 131.41992188 318.63867188 C127.91182032 318.81966191 127.91182032 318.81966191 125 320.4375 C125.91523438 320.70304687 126.83046875 320.96859375 127.7734375 321.2421875 C129.55621094 321.77199219 129.55621094 321.77199219 131.375 322.3125 C132.55835938 322.66054688 133.74171875 323.00859375 134.9609375 323.3671875 C138 324.4375 138 324.4375 140 326.4375 C140.50973723 330.37486472 140.41676864 334.34590032 140.4375 338.3125 C140.47037109 339.41464844 140.50324219 340.51679688 140.53710938 341.65234375 C140.59112054 349.73437768 140.59112054 349.73437768 137.7734375 353.0859375 C135.25067314 354.31534098 132.87519884 355.38520184 130.1875 356.1875 C129.39730469 356.42984375 128.60710937 356.6721875 127.79296875 356.921875 C126.90544922 357.17710937 126.90544922 357.17710937 126 357.4375 C126.75925781 357.66824219 127.51851563 357.89898437 128.30078125 358.13671875 C129.29464844 358.46285156 130.28851563 358.78898437 131.3125 359.125 C132.79169922 359.59486328 132.79169922 359.59486328 134.30078125 360.07421875 C137.64476373 361.76314767 138.40864 363.07497358 140 366.4375 C140.20458984 369.43603516 140.20458984 369.43603516 139.9609375 372.7265625 C139.87457031 373.91507812 139.78820312 375.10359375 139.69921875 376.328125 C139.53873047 378.17664063 139.53873047 378.17664063 139.375 380.0625 C139.29121094 381.30257813 139.20742188 382.54265625 139.12109375 383.8203125 C138.39830502 392.92943071 138.39830502 392.92943071 136.57543945 395.25463867 C134.72555039 396.6435605 132.99723548 397.37287795 130.8125 398.125 C130.09707031 398.37636719 129.38164062 398.62773437 128.64453125 398.88671875 C128.10183594 399.06847656 127.55914062 399.25023437 127 399.4375 C127.63808594 399.64246094 128.27617187 399.84742188 128.93359375 400.05859375 C130.17302734 400.46271484 130.17302734 400.46271484 131.4375 400.875 C132.67306641 401.27525391 132.67306641 401.27525391 133.93359375 401.68359375 C136 402.4375 136 402.4375 137 403.4375 C137.02906417 405.27212884 136.98641036 407.10797409 136.9140625 408.94140625 C136.84832031 410.64200195 136.84832031 410.64200195 136.78125 412.37695312 C136.7296875 413.57255859 136.678125 414.76816406 136.625 416 C136.55925781 417.75280273 136.55925781 417.75280273 136.4921875 419.54101562 C135.79899193 436.61095663 135.79899193 436.61095663 133.1875 439.3125 C132.465625 439.68375 131.74375 440.055 131 440.4375 C130.2575 440.829375 129.515 441.22125 128.75 441.625 C128.1725 441.893125 127.595 442.16125 127 442.4375 C127.969375 442.746875 128.93875 443.05625 129.9375 443.375 C133 444.4375 133 444.4375 134 445.4375 C134.41861982 453.12443477 133.84571251 460.79984134 133.16015625 468.453125 C132.98176771 470.58462149 132.80457616 472.71621841 132.62841797 474.84790039 C132.48941071 476.5168486 132.48941071 476.5168486 132.34759521 478.21951294 C130.64036473 498.98679668 129.62506641 519.66451672 129.375 540.5 C129.34424288 542.89363822 129.31331934 545.28727432 129.28222656 547.6809082 C129.26717072 548.8434462 129.25211487 550.00598419 129.23660278 551.20375061 C129.2142305 552.916605 129.2142305 552.916605 129.19140625 554.6640625 C129.17689423 555.78473618 129.1623822 556.90540985 129.14743042 558.06004333 C128.79066978 583.88320359 126.65416314 609.52466526 124.31936264 635.23286819 C124.12938261 637.32669788 123.94083711 639.42065341 123.75234985 641.51461792 C117.19560793 714.01100279 117.19560793 714.01100279 108 726.4375 C105.4052195 728.33611988 103.16380516 729.02056444 100 729.4375 C98.783125 729.6025 97.56625 729.7675 96.3125 729.9375 C92.97525206 729.43376446 91.35375561 728.86521577 89.18359375 726.25390625 C59.76081196 681.10013222 68.12316385 579.85110774 67.52685547 528.16015625 C67.26686337 507.28180311 65.88848845 486.54048416 64.28344727 465.72973633 C64.19234177 464.52908035 64.10123627 463.32842438 64.00737 462.09138489 C63.83462045 459.83325537 63.65612571 457.57555568 63.47102356 455.31840515 C63.39405746 454.32001114 63.31709137 453.32161713 63.23779297 452.29296875 C63.16752899 451.42309326 63.09726501 450.55321777 63.02487183 449.65698242 C63 447.4375 63 447.4375 64 444.4375 C66.31 444.1075 68.62 443.7775 71 443.4375 C71 442.7775 71 442.1175 71 441.4375 C70.2575 441.39625 69.515 441.355 68.75 441.3125 C64.80122292 440.05607093 63.98333757 438.00750763 62 434.4375 C61.390625 431.1328125 61.390625 431.1328125 61.25 427.5625 C61.19457031 426.26441406 61.13914062 424.96632813 61.08203125 423.62890625 C60.923944 416.89822176 60.92038724 410.16920156 61 403.4375 C63.97 402.1175 66.94 400.7975 70 399.4375 C68.72125 398.81875 67.4425 398.2 66.125 397.5625 C63.59211232 396.33690919 62.00993705 395.44743705 60 393.4375 C58.165844 388.05065215 58.45798262 382.00043069 58.1875 376.375 C58.11080078 375.17810547 58.03410156 373.98121094 57.95507812 372.74804688 C57.90158203 371.60271484 57.84808594 370.45738281 57.79296875 369.27734375 C57.7364917 368.22925537 57.68001465 367.18116699 57.62182617 366.10131836 C58 363.4375 58 363.4375 59.85180664 361.63183594 C62.27847489 360.28267568 64.5750291 359.4891367 67.25 358.75 C68.14203125 358.49863281 69.0340625 358.24726563 69.953125 357.98828125 C70.96632813 357.71564453 70.96632813 357.71564453 72 357.4375 C71.00097656 357.11136719 70.00195312 356.78523438 68.97265625 356.44921875 C67.66906034 356.00843452 66.36568617 355.56699414 65.0625 355.125 C64.40314453 354.91166016 63.74378906 354.69832031 63.06445312 354.47851562 C61.34313703 353.88708907 59.66668068 353.16886173 58 352.4375 C56.52013044 347.99789131 56.77502073 343.65072847 56.75 339 C56.729375 338.04544922 56.70875 337.09089844 56.6875 336.10742188 C56.68234375 335.18638672 56.6771875 334.26535156 56.671875 333.31640625 C56.65785645 332.05679077 56.65785645 332.05679077 56.64355469 330.77172852 C57.08398007 327.88754557 58.01879863 326.55276324 60 324.4375 C62.8828125 323.20703125 62.8828125 323.20703125 66.125 322.25 C69.85636409 321.38054244 69.85636409 321.38054244 73 319.4375 C72.01257813 319.30472656 71.02515625 319.17195313 70.0078125 319.03515625 C68.72648437 318.85855469 67.44515625 318.68195313 66.125 318.5 C64.21074219 318.23896484 64.21074219 318.23896484 62.2578125 317.97265625 C59 317.4375 59 317.4375 57 316.4375 C56.77306679 312.39665379 56.57175491 308.35491914 56.375 304.3125 C56.31054688 303.17039062 56.24609375 302.02828125 56.1796875 300.8515625 C56.10234375 299.18867187 56.10234375 299.18867187 56.0234375 297.4921875 C55.97106934 296.47624512 55.91870117 295.46030273 55.86474609 294.41357422 C56.01822548 291.03647367 56.63471603 288.52920933 58 285.4375 C59.60058594 284.06958008 59.60058594 284.06958008 61.484375 283.20703125 C62.17273438 282.87896484 62.86109375 282.55089844 63.5703125 282.21289062 C64.28960937 281.89513672 65.00890625 281.57738281 65.75 281.25 C66.45382812 280.92064453 67.15765625 280.59128906 67.8828125 280.25195312 C69.26396269 279.60630392 70.64866867 278.96819727 72.03710938 278.33837891 C74.72520867 277.10466169 77.36317591 275.77664179 80 274.4375 C73.22224696 274.21323611 67.52644791 274.63710058 61 276.4375 C59.33377103 276.47569436 57.66603721 276.48330171 56 276.4375 C55.23629361 265.41830785 54.86620789 254.48278196 55 243.4375 C62.68032314 239.27732496 70.81103551 236.41891911 79 233.4375 C71.02344019 229.70745405 62.21741843 232.41682334 54 234.4375 C51.30321048 227.91830446 49.8403154 221.48908319 48.5625 214.5625 C48.35149658 213.44439941 48.14049316 212.32629883 47.9230957 211.17431641 C45.66020676 198.97461526 43.79004998 186.71429743 42 174.4375 C41.65596525 183.93031061 41.99668252 193.19492528 43.1875 202.625 C43.33892456 203.89259155 43.33892456 203.89259155 43.4934082 205.18579102 C44.13881591 209.94474803 45.0092901 214.57273402 46.21801758 219.21972656 C49.82697704 233.29719299 50.61867812 246.32160955 50.3125 260.8125 C50.28732281 262.92835832 50.26452668 265.04424634 50.24414062 267.16015625 C50.19003666 272.2533634 50.10431332 277.34508411 50 282.4375 C49.1646875 281.87482422 49.1646875 281.87482422 48.3125 281.30078125 C45.88114578 279.6702954 43.44072952 278.05391037 41 276.4375 C39.99646484 275.75554565 39.99646484 275.75554565 38.97265625 275.05981445 C33.91152529 271.72389263 28.71066729 269.61189115 23 267.625 C22.12988281 267.31369141 21.25976562 267.00238281 20.36328125 266.68164062 C18.24502729 265.92512135 16.12414041 265.17729347 14 264.4375 C18.14067205 251.52189379 22.65776619 238.82500398 27.71044922 226.23486328 C34.33200305 209.47801424 32.63136492 190.85893043 29 173.4375 C29.02618408 174.47455078 29.05236816 175.51160156 29.0793457 176.58007812 C29.17134976 180.50872333 29.22778117 184.43727848 29.2746582 188.36669922 C29.29946682 190.05208457 29.33332576 191.73736638 29.37719727 193.42236328 C29.73676289 207.61039993 28.52221652 220.54529448 20 232.4375 C12.77833842 226.55318316 9.59728412 216.30671643 8 207.4375 C7.65875988 201.86601126 7.71343356 196.32825064 7.8125 190.75 C7.82758555 189.25847717 7.84126706 187.76693945 7.85351562 186.27539062 C7.88618843 182.66244512 7.93775281 179.05007139 8 175.4375 C2.63010064 196.7972336 2.55245682 214.95906499 14 234.4375 C14.33 234.7675 14.66 235.0975 15 235.4375 C14.6445003 242.76227501 12.64630951 248.82879604 10 255.625 C6.75187768 263.82565235 6.75187768 263.82565235 5 272.4375 C5.639375 272.746875 6.27875 273.05625 6.9375 273.375 C9 274.4375 9 274.4375 10 275.4375 C10.41257648 281.41985897 9.67401588 285.08946824 7 290.4375 C-19.42786429 289.78422695 -44.46249167 276.5082697 -66.0625 262.375 C-67.40199707 261.50862915 -67.40199707 261.50862915 -68.76855469 260.62475586 C-77.56869019 254.74772481 -82.36281165 248.49185228 -86.83398438 239.04296875 C-91.64760225 229.415733 -98.69131425 225.16398461 -108.25 220.75 C-124.78266519 212.78614032 -140.02351851 203.35507599 -154 191.4375 C-154.56444824 190.95812988 -155.12889648 190.47875977 -155.71044922 189.98486328 C-165.63991208 181.45098375 -174.0910353 172.48638122 -179.28125 160.29296875 C-179.57784515 159.60504745 -179.87444031 158.91712616 -180.18002319 158.20835876 C-183.92712921 149.40955559 -187.26447133 140.45152306 -190.625 131.5 C-192.02042238 127.79573156 -193.41914991 124.09272586 -194.8203125 120.390625 C-195.16874207 119.46973587 -195.51717163 118.54884674 -195.87615967 117.60005188 C-198.16388017 111.57682657 -200.51883166 105.58430115 -202.9296875 99.609375 C-203.2354068 98.84866196 -203.5411261 98.08794891 -203.85610962 97.30418396 C-205.28619342 93.7481099 -206.7278007 90.19755248 -208.18994141 86.65454102 C-208.70005353 85.39099323 -209.20968522 84.12725135 -209.71875 82.86328125 C-210.16154297 81.78473877 -210.60433594 80.70619629 -211.06054688 79.5949707 C-212.12545581 76.01584721 -212.30361356 73.15338798 -212 69.4375 C-208.64589587 64.35119896 -204.17646924 61.02342364 -199.3125 57.4375 C-197.78577348 56.29257934 -196.25975472 55.1467144 -194.734375 54 C-193.95126953 53.41347656 -193.16816406 52.82695313 -192.36132812 52.22265625 C-189.30934817 49.9153695 -186.30106058 47.55516426 -183.29370117 45.19018555 C-165.53629564 31.24113047 -147.05323302 18.54255471 -128 6.4375 C-127.23010742 5.94749512 -126.46021484 5.45749023 -125.66699219 4.95263672 C-123.83247588 3.79929664 -121.98583475 2.67272531 -120.125 1.5625 C-119.19945313 1.00820312 -118.27390625 0.45390625 -117.3203125 -0.1171875 C-82.37147909 -15.3302091 -35.70608493 -7.9311192 0 0 Z M-133.625 31.875 C-135.02705074 32.58976776 -136.42939771 33.30395471 -137.83203125 34.01757812 C-148.85223636 39.66632968 -159.54293225 45.80128393 -170 52.4375 C-169.34 52.7675 -168.68 53.0975 -168 53.4375 C-165.06500544 52.38024511 -162.22923325 51.25025011 -159.36328125 50.02734375 C-158.49164841 49.66282608 -157.62001556 49.29830841 -156.7219696 48.92274475 C-153.91569179 47.7474433 -151.11403049 46.56156735 -148.3125 45.375 C-146.4736178 44.60147496 -144.63442827 43.8286801 -142.79492188 43.05664062 C-141.89514618 42.67899567 -140.99537048 42.30135071 -140.06832886 41.91226196 C-138.72933029 41.35047745 -138.72933029 41.35047745 -137.36328125 40.77734375 C-136.47279083 40.40354584 -135.58230042 40.02974792 -134.66482544 39.6446228 C-107.66986852 28.32391602 -107.66986852 28.32391602 -95.875 27.8125 C-95.11219727 27.77672852 -94.34939453 27.74095703 -93.56347656 27.70410156 C-91.04260727 27.59775714 -88.52195647 27.51369488 -86 27.4375 C-85.09217773 27.40881836 -84.18435547 27.38013672 -83.24902344 27.35058594 C-60.19550643 26.71974844 -41.51556691 30.73286459 -24 46.4375 C-23.13632813 47.17097656 -22.27265625 47.90445313 -21.3828125 48.66015625 C-14.29847138 54.78800621 -6.81855184 61.49884541 -5.6640625 71.28515625 C-5.56118917 79.75163148 -6.77262416 87.44636177 -8.66455078 95.68383789 C-8.84872559 96.50231201 -9.03290039 97.32078613 -9.22265625 98.1640625 C-9.48187866 99.25581787 -9.48187866 99.25581787 -9.74633789 100.36962891 C-10.02721109 102.65932673 -9.69157676 104.25289303 -9 106.4375 C-0.09474097 83.0595471 -0.09474097 83.0595471 -3.75 58.92578125 C-12.68866689 41.13224748 -33.1631084 29.68304479 -51 22.4375 C-53.96724489 21.54812207 -56.63663759 21.30214473 -59.72998047 21.27636719 C-60.66550751 21.26675964 -61.60103455 21.2571521 -62.56491089 21.24725342 C-64.07578781 21.2408786 -64.07578781 21.2408786 -65.6171875 21.234375 C-66.66593048 21.22867493 -67.71467346 21.22297485 -68.79519653 21.21710205 C-71.0193786 21.20765509 -73.24357465 21.20111928 -75.46777344 21.19726562 C-78.82773307 21.18763547 -82.18706085 21.15664039 -85.546875 21.125 C-103.7754247 21.02726912 -117.44676321 23.45912712 -133.625 31.875 Z M216 41.4375 C215.13503906 42.14777344 214.27007812 42.85804687 213.37890625 43.58984375 C204.2334569 51.32202901 198.83049048 59.54383083 197.8203125 71.578125 C197.50473957 81.32582222 199.80749255 90.4366569 203 99.5625 C203.39179443 100.68301758 203.39179443 100.68301758 203.79150391 101.82617188 C205.29285211 105.99340583 205.29285211 105.99340583 208 109.4375 C207.732069 108.04110666 207.46037532 106.64543558 207.1875 105.25 C206.91873047 103.87134766 206.91873047 103.87134766 206.64453125 102.46484375 C206.21456461 100.44530349 205.73237456 98.43618921 205.19921875 96.44140625 C202.51980531 86.26979408 200.65548534 73.57000799 204.78125 63.50390625 C213.87978614 48.07722158 233.06479652 34.73570859 250 29.4375 C257.40028715 27.68606003 264.54070806 27.14319733 272.125 27.25 C273.12128418 27.2593457 274.11756836 27.26869141 275.14404297 27.27832031 C278.09657436 27.3152684 281.04796048 27.37277123 284 27.4375 C284.825 27.45151855 285.65 27.46553711 286.5 27.47998047 C288.70990431 27.52524244 290.91643151 27.59937434 293.125 27.6875 C294.34445312 27.73390625 295.56390625 27.7803125 296.8203125 27.828125 C308.51505265 29.09871895 319.74338402 34.6219474 330.5 39.125 C332.00117589 39.74732712 333.5025614 40.36914881 335.00415039 40.99047852 C341.62015349 43.73447818 348.21760112 46.51419232 354.77734375 49.390625 C355.75058594 49.81641846 356.72382812 50.24221191 357.7265625 50.6809082 C359.48726692 51.45644903 361.24406013 52.24095357 362.99609375 53.03588867 C367.36861039 55.1569142 367.36861039 55.1569142 372 54.4375 C371.41847168 54.13682617 370.83694336 53.83615234 370.23779297 53.52636719 C360.19830769 48.32885632 350.17299876 43.1166206 340.27416992 37.65478516 C335.86361054 35.22263123 331.43694321 32.82114378 327 30.4375 C326.28344238 30.05126465 325.56688477 29.6650293 324.82861328 29.26708984 C322.9194941 28.2539271 320.99670309 27.27672948 319.0625 26.3125 C318.04285156 25.79429688 317.02320313 25.27609375 315.97265625 24.7421875 C304.34382075 20.28018404 290.47662097 21.06477097 278.2109375 21.06689453 C275.37179669 21.06249504 272.534183 21.02595671 269.6953125 20.98828125 C248.66381868 20.85606617 231.85799267 27.48564335 216 41.4375 Z M14 57.4375 C14.05220703 59.10425781 14.05220703 59.10425781 14.10546875 60.8046875 C14.47458937 77.37410205 10.39122248 86.71011385 0.19921875 99.7109375 C-1.85780314 102.67251299 -2.13133377 105.32859254 -2.2109375 108.82421875 C-2.23929688 109.68080078 -2.26765625 110.53738281 -2.296875 111.41992188 C-2.34838864 113.20358158 -2.39282209 114.9874618 -2.4296875 116.77148438 C-2.64048184 122.65176819 -3.75656975 127.00603728 -6 132.4375 C-6.50196294 136.14823505 -6.50196294 136.14823505 -6 139.4375 C-4.54303432 141.12948529 -4.54303432 141.12948529 -3 142.4375 C-2.99742187 141.80585938 -2.99484375 141.17421875 -2.9921875 140.5234375 C-2.6159418 131.81962031 0.29201296 125.20499578 4 117.4375 C15.12719202 118.07945339 24.22782934 122.56547276 32 130.4375 C33.01126953 131.42943359 33.01126953 131.42943359 34.04296875 132.44140625 C35.71253092 134.09097366 37.36362985 135.75510694 39 137.4375 C40.92633829 132.04878898 38.25717327 127.37721049 36 122.4375 C32.60334255 116.34256327 28.15479484 112.81903966 22.26953125 109.17578125 C19.0714524 106.72630606 17.47523447 104.11886752 16.3828125 100.25390625 C15.64038531 93.76329279 16.79500256 88.35858865 18.28125 82.03515625 C20.10779156 72.8925216 20.0001718 65.4065238 15 57.4375 C14.67 57.4375 14.34 57.4375 14 57.4375 Z M182 57.4375 C176.64897037 65.63126412 176.78488332 74.5072023 178.71875 83.9453125 C179.27047305 86.1062278 179.82504355 88.2664186 180.3828125 90.42578125 C181.5315265 96.03121478 181.30910428 101.09202149 178.5 106.125 C175.54107959 108.86200138 172.3807718 111.249894 169.1796875 113.6953125 C163.34474846 118.35908098 159.83228233 124.22735005 158 131.4375 C158.3191548 133.67024795 158.3191548 133.67024795 159 135.4375 C159.80050781 134.56738281 159.80050781 134.56738281 160.6171875 133.6796875 C168.71768963 125.1867735 178.54167731 117.67561162 190.79296875 117.3671875 C191.88544922 117.40199219 191.88544922 117.40199219 193 117.4375 C197.02174448 125.86225525 199.96129079 132.95374404 200 142.4375 C200.66 142.1075 201.32 141.7775 202 141.4375 C203.7644741 135.13580679 202.33511574 130.47603475 200.47412109 124.29614258 C199.21044179 119.88639413 198.82458779 116.07134857 199 111.5 C199.22995701 103.27153835 196.32649989 99.28423137 191.64990234 92.7121582 C183.14141632 80.69644888 182.57945047 71.87636713 183 57.4375 C182.67 57.4375 182.34 57.4375 182 57.4375 Z M-11 106.4375 C-10 109.4375 -10 109.4375 -10 109.4375 Z M208 109.4375 C209 111.4375 209 111.4375 209 111.4375 Z M210 114.4375 C211 116.4375 211 116.4375 211 116.4375 Z M-14 115.4375 C-13 117.4375 -13 117.4375 -13 117.4375 Z M211 117.4375 C212 120.4375 212 120.4375 212 120.4375 Z M-15 118.4375 C-14 120.4375 -14 120.4375 -14 120.4375 Z M-16 121.4375 C-20.93496833 141.05501875 -15.00594875 158.21408619 -5.18359375 175.07421875 C-3.43748131 177.91663644 -1.49804245 180.20002434 1 182.4375 C1.50889265 176.49788722 0.05221204 173.10990078 -3.1875 168.3125 C-12.74712901 153.26427693 -15.42561647 138.95871125 -15 121.4375 C-15.33 121.4375 -15.66 121.4375 -16 121.4375 Z M212 121.4375 C212.02320313 122.22511719 212.04640625 123.01273438 212.0703125 123.82421875 C212.36441331 141.57530363 208.24779748 155.83353069 198.94702148 170.88208008 C196.53347414 174.91112642 195.49827368 177.59247118 196 182.4375 C196.66 182.4375 197.32 182.4375 198 182.4375 C200.1188862 178.48688115 202.21732713 174.5257388 204.3125 170.5625 C204.90740234 169.45390625 205.50230469 168.3453125 206.11523438 167.203125 C214.05497386 152.12205558 216.7385503 138.307322 213 121.4375 C212.67 121.4375 212.34 121.4375 212 121.4375 Z M9 128.4375 C8.67 129.4275 8.34 130.4175 8 131.4375 C14.435 135.3975 14.435 135.3975 21 139.4375 C21.33 138.7775 21.66 138.1175 22 137.4375 C17.7388113 131.64032877 17.7388113 131.64032877 11.5625 128.4375 C10.716875 128.4375 9.87125 128.4375 9 128.4375 Z M178.6875 132.9375 C177.64142578 134.19046875 177.64142578 134.19046875 176.57421875 135.46875 C175.79498047 136.44328125 175.79498047 136.44328125 175 137.4375 C175.33 138.0975 175.66 138.7575 176 139.4375 C180.29 136.7975 184.58 134.1575 189 131.4375 C188.67 130.4475 188.34 129.4575 188 128.4375 C183.13870931 127.82451764 181.71212704 129.24642972 178.6875 132.9375 Z M8 141.4375 C8.70339566 143.94715614 8.70339566 143.94715614 10 146.4375 C11.87957244 147.5951585 11.87957244 147.5951585 14 147.4375 C15.77190909 146.08305699 15.77190909 146.08305699 17 144.4375 C12.7362719 142.07839647 12.7362719 142.07839647 8 141.4375 Z M180 144.4375 C180.99 145.4275 181.98 146.4175 183 147.4375 C185.50965614 146.73410434 185.50965614 146.73410434 188 145.4375 C188.88693303 143.39644361 188.88693303 143.39644361 189 141.4375 C185.30581799 141.4375 183.22163822 142.71929295 180 144.4375 Z M199 142.4375 C200 144.4375 200 144.4375 200 144.4375 Z " fill="#43464B" transform="translate(212,7.5625)"/>
<path d="M0 0 C3.77281135 6.896904 6.09032342 13.99355883 8.375 21.5 C8.56975922 22.13494385 8.76451843 22.7698877 8.96517944 23.42407227 C14.86372712 42.68517667 19.64557364 62.13340988 23 82 C23.3403125 83.93746094 23.3403125 83.93746094 23.6875 85.9140625 C27.5880161 111.646634 25.48524488 137.13227153 15 161 C14.73316406 161.61069336 14.46632813 162.22138672 14.19140625 162.85058594 C7.84997647 177.0581194 -0.04916075 187.33670017 -13 196 C-13.78117187 196.56074219 -14.56234375 197.12148438 -15.3671875 197.69921875 C-20.2299843 201.04812598 -20.2299843 201.04812598 -24 200.8125 C-24.66 200.544375 -25.32 200.27625 -26 200 C-25.43809235 194.75552855 -23.6533361 190.87556551 -21.3125 186.25 C-12.47865208 168.08921519 -6.92833269 148.37885734 -6.796875 128.08203125 C-6.78981537 127.35121338 -6.78275574 126.62039551 -6.77548218 125.86743164 C-6.65736957 110.03069132 -6.70592351 94.56033414 -10 79 C-10.19335938 78.05785645 -10.38671875 77.11571289 -10.5859375 76.14501953 C-14.60230386 57.0021993 -20.16047941 37.94273254 -28 20 C-28.875 16.5625 -28.875 16.5625 -28 13 C-20.78201847 5.89076395 -10.3230465 -0.48224451 0 0 Z " fill="#43464B" transform="translate(391,284)"/>
<path d="M0 0 C11.286763 1.39283458 19.24107782 7.10051381 28 14 C26.45731398 19.53552043 24.68279415 24.91217627 22.64013672 30.27929688 C4.83983955 77.18693681 -4.21574305 132.53125648 17 180 C18.5304358 183.28107212 20.06522026 186.56036791 21.67724609 189.80224609 C23.49172264 193.53206004 24.52198822 196.88029319 25 201 C13.21854401 199.62205193 2.89734134 189.97491727 -4.37890625 181.09765625 C-25.32809767 152.42101352 -28.4739634 118.1577404 -23.18554688 84.13500977 C-19.82224775 62.95634478 -15.07327883 42.5005122 -8.8125 22 C-8.54847382 21.1308194 -8.28444763 20.26163879 -8.01242065 19.36611938 C-7.25452623 16.88647855 -6.48366246 14.41132902 -5.70703125 11.9375 C-5.47905853 11.19400803 -5.25108582 10.45051605 -5.01620483 9.68449402 C-3.82563149 5.95835395 -2.60787098 2.94707122 0 0 Z " fill="#43464B" transform="translate(231,284)"/>
</svg>
