<svg xmlns="http://www.w3.org/2000/svg" version="1.1" xmlns:xlink="http://www.w3.org/1999/xlink" width="1000" height="1000"><g clip-path="url(#SvgjsClipPath1009)"><rect width="1000" height="1000" fill="#ffffff"></rect><g transform="matrix(3.5,0,0,3.5,150,150)"><svg xmlns="http://www.w3.org/2000/svg" version="1.1" xmlns:xlink="http://www.w3.org/1999/xlink" width="200" height="200"><svg xmlns="http://www.w3.org/2000/svg" version="1.1" xmlns:xlink="http://www.w3.org/1999/xlink" viewBox="0 0 200 200"><rect width="200" height="200" fill="url('#gradient')"></rect><defs><linearGradient id="gradient" gradientTransform="rotate(45 0.5 0.5)"><stop offset="0%" stop-color="#ffffff"></stop><stop offset="100%" stop-color="#ffffff"></stop></linearGradient><clipPath id="SvgjsClipPath1009"><rect width="1000" height="1000" x="0" y="0" rx="350" ry="350"></rect></clipPath></defs><g><g fill="#1db954" transform="matrix(4.840336134453781,0,0,4.840336134453781,4.4746336285807615,135.820829679986)" stroke="#ffffff" stroke-width="0"><path d="M2.96-3.19L2.96-3.19Q3.74-3.19 4.26-2.73Q4.78-2.27 4.78-1.54Q4.78-0.82 4.26-0.36Q3.74 0.11 2.96 0.11L2.96 0.11Q2.17 0.11 1.66-0.36Q1.14-0.83 1.14-1.54Q1.14-2.26 1.66-2.72Q2.17-3.19 2.96-3.19ZM6.55-5.36L6.55-5.36Q6.55-7.87 7.64-9.32Q8.72-10.76 10.66-10.76L10.66-10.76Q12.08-10.76 13.05-9.65L13.05-9.65L13.05-15L16.35-15L16.35 0L13.39 0L13.22-1.13Q12.21 0.20 10.64 0.20L10.64 0.20Q8.76 0.20 7.66-1.25Q6.55-2.70 6.55-5.36ZM9.85-5.76L9.84-5.16Q9.84-2.34 11.48-2.34L11.48-2.34Q12.58-2.34 13.05-3.26L13.05-3.26L13.05-7.29Q12.60-8.22 11.50-8.22L11.50-8.22Q9.98-8.22 9.85-5.76L9.85-5.76ZM23.33 0.20L23.33 0.20Q20.90 0.20 19.39-1.25Q17.89-2.71 17.89-5.03L17.89-5.03L17.89-5.30Q17.89-6.92 18.49-8.16Q19.09-9.40 20.24-10.08Q21.40-10.76 22.98-10.76L22.98-10.76Q25.21-10.76 26.49-9.38Q27.78-8.00 27.78-5.53L27.78-5.53L27.78-4.25L21.24-4.25Q21.42-3.36 22.01-2.85Q22.61-2.34 23.55-2.34L23.55-2.34Q25.12-2.34 26.00-3.44L26.00-3.44L27.50-1.66Q26.88-0.81 25.76-0.31Q24.63 0.20 23.33 0.20ZM22.96-8.22L22.96-8.22Q21.51-8.22 21.24-6.31L21.24-6.31L24.56-6.31L24.56-6.56Q24.58-7.35 24.16-7.79Q23.74-8.22 22.96-8.22ZM31.55-10.57L33.19-3.92L34.86-10.57L38.33-10.57L34.88 0L31.52 0L28.08-10.57L31.55-10.57Z"></path></g></g></svg></svg></g></g></svg>